<svg width="560" height="460" xmlns="http://www.w3.org/2000/svg">

 <metadata id="imagebot_7">image/svg+xml</metadata>
 <g label="Capa 1" id="imagebot_2">
  <path label="Capa 1" fill="#007fff" id="imagebot_6" d="M 560.0000010620117 459.9999993115234 C 560.0000010620117 459.9999993115234 560.0000010620117 242.30499931152343 560.0000010620117 242.30499931152343 C 560.0000010620117 242.30499931152343 260.7345210620117 241.16137931152343 260.7345210620117 241.16137931152343 C 260.7345210620117 241.16137931152343 260.7345210620117 438.6238993115234 260.7345210620117 438.6238993115234 C 260.7345210620117 438.6238993115234 560.0000010620117 459.9999993115234 560.0000010620117 459.9999993115234 C 560.0000010620117 459.9999993115234 560.0000010620117 459.9999993115234 560.0000010620117 459.9999993115234"/>
  <path label="Capa 1" fill="#007fff" id="imagebot_5" d="M 239.62423106201175 437.1160193115234 C 239.62423106201175 437.1160193115234 239.62423106201175 241.08070931152344 239.62423106201175 241.08070931152344 C 239.62423106201175 241.08070931152344 0.0000010620117194548584 240.16499931152345 0.0000010620117194548584 240.16499931152345 C 0.0000010620117194548584 240.16499931152345 0.0000010620117194548584 419.9999993115234 0.0000010620117194548584 419.9999993115234 C 0.0000010620117194548584 419.9999993115234 239.62423106201175 437.1160193115234 239.62423106201175 437.1160193115234 C 239.62423106201175 437.1160193115234 239.62423106201175 437.1160193115234 239.62423106201175 437.1160193115234"/>
  <path label="Capa 1" fill="#007fff" id="imagebot_4" d="M 560.0000010620117 217.72374931152342 C 560.0000010620117 217.72374931152342 560.0000010620117 -6.884765610948307e-7 560.0000010620117 -6.884765610948307e-7 C 560.0000010620117 -6.884765610948307e-7 260.7345210620117 21.376109311523436 260.7345210620117 21.376109311523436 C 260.7345210620117 21.376109311523436 260.7345210620117 218.86469931152345 260.7345210620117 218.86469931152345 C 260.7345210620117 218.86469931152345 560.0000010620117 217.72374931152342 560.0000010620117 217.72374931152342 C 560.0000010620117 217.72374931152342 560.0000010620117 217.72374931152342 560.0000010620117 217.72374931152342"/>
  <path label="Capa 1" fill="#007fff" id="imagebot_3" d="M 239.62423106201175 218.94518931152345 C 239.62423106201175 218.94518931152345 239.62423106201175 22.883989311523436 239.62423106201175 22.883989311523436 C 239.62423106201175 22.883989311523436 0.0000010620117194548584 39.99999931152344 0.0000010620117194548584 39.99999931152344 C 0.0000010620117194548584 39.99999931152344 0.0000010620117194548584 219.8587493115234 0.0000010620117194548584 219.8587493115234 C 0.0000010620117194548584 219.8587493115234 239.62423106201175 218.94518931152345 239.62423106201175 218.94518931152345 C 239.62423106201175 218.94518931152345 239.62423106201175 218.94518931152345 239.62423106201175 218.94518931152345"/>
  <title>Capa 1</title>
 </g>
</svg>