<?xml version="1.0" encoding="UTF-8" standalone="no"?>
<!-- Created with Inkscape (http://www.inkscape.org/) -->
<svg
   xmlns:dc="http://purl.org/dc/elements/1.1/"
   xmlns:cc="http://creativecommons.org/ns#"
   xmlns:rdf="http://www.w3.org/1999/02/22-rdf-syntax-ns#"
   xmlns:svg="http://www.w3.org/2000/svg"
   xmlns="http://www.w3.org/2000/svg"
   xmlns:sodipodi="http://sodipodi.sourceforge.net/DTD/sodipodi-0.dtd"
   xmlns:inkscape="http://www.inkscape.org/namespaces/inkscape"
   width="180"
   height="180"
   id="svg3820"
   sodipodi:version="0.32"
   inkscape:version="0.46"
   version="1.0"
   sodipodi:docname="Cisco_academy_logo.svg"
   inkscape:output_extension="org.inkscape.output.svg.inkscape">
  <metadata
     id="metadata39">
    <rdf:RDF>
      <cc:Work
         rdf:about="">
        <dc:format>image/svg+xml</dc:format>
        <dc:type
           rdf:resource="http://purl.org/dc/dcmitype/StillImage" />
      </cc:Work>
    </rdf:RDF>
  </metadata>
  <defs
     id="defs3822">
    <inkscape:perspective
       sodipodi:type="inkscape:persp3d"
       inkscape:vp_x="0 : 47.436245 : 1"
       inkscape:vp_y="0 : 1000 : 0"
       inkscape:vp_z="180 : 47.436245 : 1"
       inkscape:persp3d-origin="90 : 31.624163 : 1"
       id="perspective41" />
  </defs>
  <sodipodi:namedview
     id="base"
     pagecolor="#ffffff"
     bordercolor="#666666"
     borderopacity="1.0"
     gridtolerance="10000"
     guidetolerance="10"
     objecttolerance="10"
     inkscape:pageopacity="0.0"
     inkscape:pageshadow="2"
     inkscape:zoom="1.979899"
     inkscape:cx="89.168612"
     inkscape:cy="76.466833"
     inkscape:document-units="px"
     inkscape:current-layer="layer1"
     showgrid="false"
     inkscape:window-width="811"
     inkscape:window-height="667"
     inkscape:window-x="110"
     inkscape:window-y="99" />
  <g
     inkscape:label="Layer 1"
     inkscape:groupmode="layer"
     id="layer1"
     transform="translate(-54.9999,-89.7794)">
    <rect
       style="opacity:1;fill:#005568;fill-opacity:1;fill-rule:nonzero;stroke:#15495d;stroke-width:5;stroke-linecap:round;stroke-linejoin:round;stroke-miterlimit:4;stroke-dasharray:none;stroke-dashoffset:0;stroke-opacity:1"
       id="rect2475"
       width="174.25131"
       height="171.22086"
       x="58.030357"
       y="95.02301"
       rx="15"
       ry="15" />
    <path
       style="fill:#ffffff;fill-opacity:1;fill-rule:nonzero;stroke:none;stroke-width:5;stroke-linecap:round;stroke-linejoin:round;stroke-miterlimit:4;stroke-dasharray:none;stroke-dashoffset:0;stroke-opacity:1"
       d="M 75.146619,97.56065 C 66.78715,97.56065 60.057324,103.80681 60.057324,111.56548 L 60.057324,167.35143 L 60.057324,175.95857 L 60.057324,189.96341 L 75.146619,189.96341 L 215.66568,189.96341 L 230.75498,189.96341 L 230.75498,175.95857 L 230.75498,167.35143 L 230.75498,111.56548 C 230.75498,103.80681 224.02514,97.56065 215.66568,97.56065 L 75.146619,97.56065 z"
       id="rect3259" />
    <g
       id="g3419"
       transform="matrix(0.831228,0,0,0.831228,26.422258,23.700252)">
      <g
         id="g3358">
        <path
           id="path2894"
           style="fill:#005568;fill-opacity:1;fill-rule:nonzero;stroke:none"
           d="M 129.78041,115.8426 C 129.78041,113.87842 128.17625,112.28109 126.20979,112.28109 C 124.24104,112.28109 122.63688,113.87842 122.63688,115.8426 L 122.63688,133.14885 C 122.63688,135.12442 124.24104,136.71719 126.20979,136.71719 C 128.17625,136.71719 129.78041,135.12442 129.78041,133.14885 L 129.78041,115.8426 z" />
        <path
           id="path2882"
           style="fill:#005568;fill-opacity:1;fill-rule:nonzero;stroke:none"
           d="M 70.927203,125.66438 C 70.927203,123.7002 69.323043,122.10743 67.356579,122.10743 C 65.390116,122.10743 63.783677,123.7002 63.783677,125.66438 L 63.783677,133.14742 C 63.783677,135.123 65.390116,136.71805 67.356579,136.71805 C 69.323043,136.71805 70.927203,135.123 70.927203,133.14742 L 70.927203,125.66438 z" />
        <path
           id="path2886"
           style="fill:#005568;fill-opacity:1;fill-rule:nonzero;stroke:none"
           d="M 90.544873,115.8426 C 90.544873,113.87842 88.940713,112.28109 86.974249,112.28109 C 85.005507,112.28109 83.401347,113.87842 83.401347,115.8426 L 83.401347,133.14885 C 83.401347,135.12442 85.005507,136.71719 86.974249,136.71719 C 88.940713,136.71719 90.544873,135.12442 90.544873,133.14885 L 90.544873,115.8426 z" />
        <path
           id="path2890"
           style="fill:#005568;fill-opacity:1;fill-rule:nonzero;stroke:none"
           d="M 110.16187,102.40463 C 110.16187,100.44045 108.55771,98.845399 106.59125,98.845399 C 104.6225,98.845399 103.01834,100.44045 103.01834,102.40463 L 103.01834,140.25962 C 103.01834,142.2352 104.6225,143.83025 106.59125,143.83025 C 108.55771,143.83025 110.16187,142.2352 110.16187,140.25962 L 110.16187,102.40463 z" />
        <path
           id="path2898"
           style="fill:#005568;fill-opacity:1;fill-rule:nonzero;stroke:none"
           d="M 149.37489,125.66438 C 149.37489,123.7002 147.78212,122.10743 145.82477,122.10743 C 143.85831,122.10743 142.25415,123.7002 142.25415,125.66438 L 142.25415,133.14742 C 142.25415,135.123 143.85831,136.71805 145.82477,136.71805 C 147.78212,136.71805 149.37489,135.123 149.37489,133.14742 L 149.37489,125.66438 z" />
        <path
           id="path2902"
           style="fill:#005568;fill-opacity:1;fill-rule:nonzero;stroke:none"
           d="M 169.00208,115.8426 C 169.00208,113.87842 167.40931,112.28109 165.44057,112.28109 C 163.47866,112.28109 161.88134,113.87842 161.88134,115.8426 L 161.88134,133.14885 C 161.88134,135.12442 163.47866,136.71719 165.44057,136.71719 C 167.40931,136.71719 169.00208,135.12442 169.00208,133.14885 L 169.00208,115.8426 z" />
        <path
           id="path2906"
           style="fill:#005568;fill-opacity:1;fill-rule:nonzero;stroke:none"
           d="M 188.63313,102.40463 C 188.63313,100.44045 187.04036,98.845399 185.07162,98.845399 C 183.10516,98.845399 181.51239,100.44045 181.51239,102.40463 L 181.51239,140.25962 C 181.51239,142.2352 183.10516,143.83025 185.07162,143.83025 C 187.04036,143.83025 188.63313,142.2352 188.63313,140.25962 L 188.63313,102.40463 z" />
        <path
           id="path2910"
           style="fill:#005568;fill-opacity:1;fill-rule:nonzero;stroke:none"
           d="M 208.25936,115.8426 C 208.25936,113.87842 206.66659,112.28109 204.65456,112.28109 C 202.68809,112.28109 201.09305,113.87842 201.09305,115.8426 L 201.09305,133.14885 C 201.09305,135.12442 202.68809,136.71719 204.65456,136.71719 C 206.66659,136.71719 208.25936,135.12442 208.25936,133.14885 L 208.25936,115.8426 z" />
        <path
           id="path2914"
           style="fill:#005568;fill-opacity:1;fill-rule:nonzero;stroke:none"
           d="M 227.84615,125.66438 C 227.84615,123.7002 226.24883,122.10743 224.28464,122.10743 C 222.31818,122.10743 220.72085,123.7002 220.72085,125.66438 L 220.72085,133.14742 C 220.72085,135.123 222.31818,136.71805 224.28464,136.71805 C 226.24883,136.71805 227.84615,135.123 227.84615,133.14742 L 227.84615,125.66438 z" />
      </g>
      <g
         transform="matrix(0.9621646,0,0,0.9621646,6.3010123,10.057418)"
         id="g4031">
        <g
           id="g2864"
           transform="matrix(2.36824,0,0,-2.36824,175.732,160.485)">
          <path
             d="M 0,0 C -0.129,0.066 -1.146,0.668 -2.656,0.668 C -4.697,0.668 -6.113,-0.753 -6.113,-2.669 C -6.113,-4.528 -4.758,-6.009 -2.656,-6.009 C -1.172,-6.009 -0.139,-5.42 0,-5.345 L 0,-8.703 C -0.396,-8.814 -1.475,-9.148 -2.877,-9.148 C -6.428,-9.148 -9.545,-6.7 -9.545,-2.669 C -9.545,1.067 -6.725,3.807 -2.877,3.807 C -1.396,3.807 -0.299,3.446 0,3.358 L 0,0 z"
             style="fill:#c5112e;fill-opacity:1;fill-rule:nonzero;stroke:none"
             id="path2866" />
        </g>
        <g
           id="g2868"
           transform="matrix(2.36824,0,0,-2.36824,97.691,160.485)">
          <path
             d="M 0,0 C -0.127,0.066 -1.143,0.668 -2.652,0.668 C -4.697,0.668 -6.112,-0.753 -6.112,-2.669 C -6.112,-4.528 -4.756,-6.009 -2.652,-6.009 C -1.168,-6.009 -0.136,-5.42 0,-5.345 L 0,-8.703 C -0.393,-8.814 -1.469,-9.148 -2.879,-9.148 C -6.428,-9.148 -9.541,-6.7 -9.541,-2.669 C -9.541,1.067 -6.721,3.807 -2.879,3.807 C -1.394,3.807 -0.297,3.446 0,3.358 L 0,0 z"
             style="fill:#c5112e;fill-opacity:1;fill-rule:nonzero;stroke:none"
             id="path2870" />
        </g>
        <g
           id="g2872"
           transform="matrix(2.36824,0,0,-2.36824,214.91,166.806)">
          <path
             d="M 0,0 C 0,-3.579 -2.764,-6.479 -6.611,-6.479 C -10.459,-6.479 -13.219,-3.579 -13.219,0 C -13.219,3.573 -10.459,6.476 -6.611,6.476 C -2.764,6.476 0,3.573 0,0 M -6.611,3.29 C -8.484,3.29 -9.875,1.816 -9.875,0 C -9.875,-1.82 -8.484,-3.293 -6.611,-3.293 C -4.74,-3.293 -3.346,-1.82 -3.346,0 C -3.346,1.816 -4.74,3.29 -6.611,3.29"
             style="fill:#c5112e;fill-opacity:1;fill-rule:nonzero;stroke:none"
             id="path2874" />
        </g>
        <g
           id="g2876"
           transform="matrix(2.36824,0,0,-2.36824,143.8,158.73)">
          <path
             d="M 0,0 C -0.047,0.015 -1.376,0.382 -2.468,0.382 C -3.733,0.382 -4.421,-0.042 -4.421,-0.644 C -4.421,-1.405 -3.493,-1.671 -2.974,-1.835 L -2.103,-2.112 C -0.054,-2.764 0.88,-4.167 0.88,-5.691 C 0.88,-8.834 -1.884,-9.89 -4.3,-9.89 C -5.979,-9.89 -7.552,-9.581 -7.707,-9.548 L -7.707,-6.669 C -7.429,-6.739 -6.105,-7.134 -4.726,-7.134 C -3.155,-7.134 -2.433,-6.675 -2.433,-5.966 C -2.433,-5.332 -3.058,-4.966 -3.841,-4.72 C -4.032,-4.656 -4.319,-4.566 -4.515,-4.502 C -6.273,-3.946 -7.739,-2.913 -7.739,-0.842 C -7.739,1.498 -5.987,3.069 -3.077,3.069 C -1.54,3.069 -0.094,2.696 0,2.671 L 0,0 z"
             style="fill:#c5112e;fill-opacity:1;fill-rule:nonzero;stroke:none"
             id="path2878" />
        </g>
        <path
           d="M 115.44452,181.62412 L 107.96799,181.62412 L 107.96799,151.9951 L 115.44452,151.9951 L 115.44452,181.62412 z"
           style="fill:#c5112e;fill-opacity:1;fill-rule:nonzero;stroke:none"
           id="path2854" />
      </g>
      <g
         transform="matrix(2.2786367,0,0,-2.2786367,223.72904,181.05524)"
         id="g2916">
        <path
           id="path2918"
           style="fill:#c5112e;fill-opacity:1;fill-rule:nonzero;stroke:none"
           d="M 0,0 L 0,-0.196 L -0.558,-0.196 L -0.558,-1.647 L -0.787,-1.647 L -0.787,-0.196 L -1.348,-0.196 L -1.348,0 L 0,0 z" />
        <path
           id="path2922"
           style="fill:#c5112e;fill-opacity:1;fill-rule:nonzero;stroke:none"
           d="M 0,0 L 0.359,0 L 0.852,-1.351 L 0.86,-1.351 L 1.337,0 L 1.689,0 L 1.689,-1.647 L 1.454,-1.647 L 1.454,-0.297 L 1.446,-0.297 L 0.946,-1.647 L 0.728,-1.647 L 0.241,-0.297 L 0.23,-0.297 L 0.23,-1.647 L 0,-1.647 L 0,0 z" />
      </g>
    </g>
    <path
       style="font-size:23.85038948px;font-style:normal;font-variant:normal;font-weight:bold;font-stretch:semi-condensed;text-align:center;line-height:125%;writing-mode:lr-tb;text-anchor:middle;fill:#ffffff;fill-opacity:1;stroke:none;stroke-width:1px;stroke-linecap:butt;stroke-linejoin:miter;stroke-opacity:1;font-family:DejaVu Sans;-inkscape-font-specification:DejaVu Sans Bold Semi-Condensed"
       d="M 80.08334,204.21782 L 84.590225,204.21782 L 90.284972,216.14302 L 90.284972,204.21782 L 94.104761,204.21782 L 94.104761,221.60485 L 89.597876,221.60485 L 83.914775,209.67966 L 83.914775,221.60485 L 80.08334,221.60485 L 80.08334,204.21782 M 109.61683,215.04832 L 109.61683,216.23618 L 100.84762,216.23618 C 100.93301,217.21443 101.24745,217.94811 101.79092,218.43722 C 102.34214,218.92634 103.10687,219.1709 104.08512,219.1709 C 104.87702,219.1709 105.68445,219.0428 106.50742,218.78659 C 107.33814,218.52263 108.18827,218.12667 109.05783,217.59873 L 109.05783,220.81294 C 108.17275,221.18561 107.28379,221.4651 106.39097,221.65143 C 105.50588,221.84553 104.62081,221.94258 103.73575,221.94258 C 101.60846,221.94258 99.954774,221.34476 98.774685,220.14914 C 97.60235,218.94575 97.016184,217.26101 97.016185,215.09491 C 97.016184,212.96763 97.594586,211.29454 98.751394,210.07561 C 99.908194,208.85671 101.49977,208.24725 103.52613,208.24724 C 105.3739,208.24725 106.84902,208.86447 107.95149,210.0989 C 109.0617,211.33336 109.61681,212.98316 109.61683,215.04832 M 105.7621,213.66248 C 105.76209,212.87059 105.55247,212.23396 105.13323,211.75259 C 104.72174,211.26348 104.17828,211.01892 103.50283,211.01891 C 102.78079,211.01892 102.19075,211.24795 101.73269,211.70601 C 101.28238,212.15632 100.999,212.80848 100.88255,213.66248 L 105.7621,213.66248 M 116.58095,204.85834 L 116.58095,208.56167 L 120.44732,208.56167 L 120.44732,211.54297 L 116.58095,211.54297 L 116.58095,217.07467 C 116.58095,217.68025 116.68576,218.09174 116.89539,218.30912 C 117.11277,218.51874 117.54366,218.62355 118.18806,218.62355 L 120.12125,218.62355 L 120.12125,221.60485 L 116.90703,221.60485 C 115.42414,221.60485 114.37215,221.26324 113.75105,220.58003 C 113.12994,219.88905 112.81939,218.7206 112.81939,217.07467 L 112.81939,211.54297 L 110.95608,211.54297 L 110.95608,208.56167 L 112.81939,208.56167 L 112.81939,204.85834 L 116.58095,204.85834 M 121.68177,208.56167 L 125.32687,208.56167 L 127.295,217.55215 L 129.27476,208.56167 L 132.40746,208.56167 L 134.38723,217.45898 L 136.36699,208.56167 L 140.0121,208.56167 L 136.91434,221.60485 L 132.8267,221.60485 L 130.83529,212.63766 L 128.86716,221.60485 L 124.76788,221.60485 L 121.68177,208.56167 M 148.15244,211.22853 C 147.32171,211.22854 146.68896,211.56239 146.25419,212.23006 C 145.81941,212.89 145.60203,213.84494 145.60203,215.09491 C 145.60203,216.34488 145.81941,217.30371 146.25419,217.97139 C 146.68896,218.63132 147.32171,218.96128 148.15244,218.96128 C 148.97539,218.96128 149.60038,218.63132 150.0274,217.97139 C 150.46216,217.30371 150.67955,216.34488 150.67956,215.09491 C 150.67955,213.84494 150.46216,212.89 150.0274,212.23006 C 149.60038,211.56239 148.97539,211.22854 148.15244,211.22853 M 148.15244,208.24724 C 150.17878,208.24725 151.75871,208.85282 152.89224,210.06396 C 154.02574,211.27513 154.5925,212.95211 154.59251,215.09491 C 154.5925,217.23772 154.02574,218.9147 152.89224,220.12585 C 151.75871,221.337 150.17878,221.94258 148.15244,221.94258 C 146.13385,221.94258 144.55003,221.337 143.401,220.12585 C 142.25972,218.9147 141.68908,217.23772 141.68908,215.09491 C 141.68908,212.95211 142.25972,211.27513 143.401,210.06396 C 144.55003,208.85282 146.13385,208.24725 148.15244,208.24724 M 166.06353,212.11361 C 165.72967,211.94281 165.39971,211.81859 165.07364,211.74094 C 164.75532,211.65555 164.42924,211.61285 164.0954,211.61284 C 163.13268,211.61285 162.39124,211.95834 161.87107,212.64931 C 161.35089,213.33253 161.09081,214.31465 161.09081,215.59567 L 161.09081,221.60485 L 157.3409,221.60485 L 157.3409,208.56167 L 161.09081,208.56167 L 161.09081,210.70448 C 161.57216,209.85047 162.12339,209.22937 162.7445,208.84117 C 163.37336,208.44523 164.12645,208.24725 165.00377,208.24724 C 165.12798,208.24725 165.26384,208.25501 165.41137,208.27053 C 165.55887,208.2783 165.77237,208.30159 166.05188,208.3404 L 166.06353,212.11361 M 167.91518,203.48414 L 171.6651,203.48414 L 171.6651,213.34805 L 175.98565,208.56167 L 180.34114,208.56167 L 174.61146,214.54756 L 180.79533,221.60485 L 176.24186,221.60485 L 171.6651,216.16631 L 171.6651,221.60485 L 167.91518,221.60485 L 167.91518,203.48414 M 182.16953,208.56167 L 185.91944,208.56167 L 185.91944,221.60485 L 182.16953,221.60485 L 182.16953,208.56167 M 182.16953,203.48414 L 185.91944,203.48414 L 185.91944,206.88469 L 182.16953,206.88469 L 182.16953,203.48414 M 201.32669,213.66248 L 201.32669,221.60485 L 197.55349,221.60485 L 197.55349,220.31218 L 197.55349,215.5258 C 197.55348,214.40005 197.53019,213.62367 197.48361,213.19666 C 197.43702,212.76966 197.35938,212.45522 197.2507,212.25336 C 197.10318,211.98163 196.90132,211.77201 196.64512,211.62449 C 196.39667,211.46922 196.1133,211.39158 195.79499,211.39157 C 195.01084,211.39158 194.39362,211.72931 193.94332,212.40475 C 193.50078,213.07244 193.27951,214.00022 193.27952,215.18807 L 193.27952,221.60485 L 189.5296,221.60485 L 189.5296,208.56167 L 193.27952,208.56167 L 193.27952,210.47156 C 193.84627,209.71072 194.44796,209.15173 195.0846,208.79458 C 195.72122,208.4297 196.42385,208.24725 197.19247,208.24724 C 198.54336,208.24725 199.56818,208.70919 200.26694,209.63307 C 200.97343,210.55698 201.32668,211.90011 201.32669,213.66248 M 212.79771,219.39217 C 212.27753,220.15302 211.70689,220.71201 211.08579,221.06915 C 210.46468,221.42628 209.74265,221.60485 208.91969,221.60485 C 207.49115,221.60485 206.30717,220.97987 205.36776,219.72989 C 204.4361,218.47216 203.97027,216.87282 203.97027,214.93187 C 203.97027,212.98316 204.4361,211.3877 205.36776,210.14548 C 206.30717,208.89552 207.49115,208.27054 208.91969,208.27053 C 209.74265,208.27054 210.46468,208.44911 211.08579,208.80623 C 211.70689,209.16338 212.27753,209.72625 212.79771,210.49485 L 212.79771,208.56167 L 216.57092,208.56167 L 216.57092,220.28889 C 216.5709,222.38511 215.97309,223.98445 214.77748,225.08691 C 213.58961,226.19713 211.86216,226.75224 209.59514,226.75225 C 208.86534,226.75224 208.15495,226.69013 207.46398,226.56592 C 206.78076,226.44169 206.09367,226.25148 205.40269,225.99528 L 205.40269,222.74613 C 206.06261,223.16537 206.70701,223.47592 207.33588,223.67778 C 207.96474,223.88741 208.59749,223.99222 209.23413,223.99222 C 210.4608,223.99222 211.3614,223.69331 211.93593,223.0955 C 212.51044,222.49769 212.7977,221.56215 212.79771,220.28889 L 212.79771,219.39217 M 210.31718,211.27512 C 209.54079,211.27513 208.93522,211.59344 208.50045,212.23006 C 208.07343,212.8667 207.85993,213.7673 207.85994,214.93187 C 207.85993,216.1275 208.06955,217.03586 208.4888,217.65696 C 208.90804,218.2703 209.5175,218.57697 210.31718,218.57697 C 211.10131,218.57697 211.71077,218.25866 212.14555,217.62202 C 212.58032,216.9854 212.7977,216.08868 212.79771,214.93187 C 212.7977,213.7673 212.58032,212.8667 212.14555,212.23006 C 211.71077,211.59344 211.10131,211.27513 210.31718,211.27512 M 104.65576,248.25021 L 98.343795,248.25021 L 97.342265,251.41784 L 93.289562,251.41784 L 99.089119,234.03081 L 103.89879,234.03081 L 109.69835,251.41784 L 105.634,251.41784 L 104.65576,248.25021 M 99.345325,245.02435 L 103.63094,245.02435 L 101.49977,238.1068 L 99.345325,245.02435 M 121.09948,238.78226 L 121.09948,242.1828 C 120.59483,241.79462 120.08242,241.50736 119.56225,241.32102 C 119.04983,241.1347 118.51801,241.04153 117.96679,241.04152 C 116.91867,241.04153 116.10347,241.38314 115.52119,242.06634 C 114.9389,242.7418 114.64776,243.68898 114.64777,244.90789 C 114.64776,246.12681 114.9389,247.07788 115.52119,247.76109 C 116.10347,248.43654 116.91867,248.77427 117.96679,248.77426 C 118.55683,248.77427 119.11582,248.67722 119.64377,248.48312 C 120.1717,248.28903 120.65694,248.00177 121.09948,247.62134 L 121.09948,251.03353 C 120.51719,251.27421 119.92326,251.45277 119.31769,251.56923 C 118.71211,251.69345 118.10653,251.75556 117.50096,251.75556 C 115.38144,251.75556 113.72387,251.15387 112.52825,249.95048 C 111.33262,248.73933 110.73481,247.05847 110.73481,244.90789 C 110.73481,242.75733 111.33262,241.08035 112.52825,239.87695 C 113.72387,238.66581 115.38144,238.06024 117.50096,238.06022 C 118.1143,238.06024 118.71987,238.12235 119.31769,238.24655 C 119.91549,238.36302 120.50942,238.54159 121.09948,238.78226 M 129.60084,245.54841 C 128.81669,245.54841 128.22665,245.69592 127.8307,245.99094 C 127.43474,246.28597 127.23676,246.72074 127.23677,247.29526 C 127.23676,247.8232 127.39592,248.23857 127.71424,248.54135 C 128.03255,248.83638 128.47509,248.98389 129.04185,248.98389 C 129.74835,248.98389 130.34228,248.70439 130.82364,248.1454 C 131.30499,247.57864 131.54567,246.87214 131.54568,246.02588 L 131.54568,245.54841 L 129.60084,245.54841 M 135.33053,243.97624 L 135.33053,251.41784 L 131.54568,251.41784 L 131.54568,249.48465 C 131.04102,250.27656 130.47426,250.85496 129.8454,251.21986 C 129.21653,251.577 128.4518,251.75556 127.5512,251.75556 C 126.33228,251.75556 125.3424,251.36349 124.58155,250.57935 C 123.82846,249.78744 123.45191,248.76262 123.45192,247.50488 C 123.45191,245.97542 123.92551,244.85355 124.87269,244.13928 C 125.81987,243.42501 127.30664,243.06788 129.33299,243.06787 L 131.54568,243.06787 L 131.54568,242.74179 C 131.54567,242.08188 131.30887,241.60052 130.83529,241.29773 C 130.36945,240.98718 129.64354,240.83191 128.65754,240.8319 C 127.8501,240.83191 127.1009,240.92119 126.40992,241.09975 C 125.71894,241.27833 125.07455,241.54618 124.47674,241.9033 L 124.47674,238.72403 C 125.28417,238.50665 126.0916,238.34361 126.89904,238.23491 C 127.71424,238.11846 128.52555,238.06024 129.33299,238.06022 C 131.4525,238.06024 132.98197,238.52606 133.9214,239.45771 C 134.8608,240.38161 135.33051,241.88778 135.33053,243.97624 M 146.81319,240.28455 L 146.81319,233.29713 L 150.58639,233.29713 L 150.58639,251.41784 L 146.81319,251.41784 L 146.81319,249.53123 C 146.293,250.29985 145.72236,250.86273 145.10127,251.21986 C 144.48016,251.577 143.75812,251.75556 142.93517,251.75556 C 141.4911,251.75556 140.30324,251.11893 139.37159,249.84567 C 138.44769,248.56464 137.98575,246.91872 137.98575,244.90789 C 137.98575,242.89708 138.44769,241.25504 139.37159,239.98176 C 140.30324,238.70075 141.4911,238.06024 142.93517,238.06022 C 143.75036,238.06024 144.46851,238.24268 145.08962,238.60757 C 145.71848,238.96472 146.293,239.52371 146.81319,240.28455 M 144.33265,248.72768 C 145.14008,248.72768 145.75342,248.4016 146.17267,247.74944 C 146.59967,247.09729 146.81318,246.15011 146.81319,244.90789 C 146.81318,243.66569 146.59967,242.71851 146.17267,242.06634 C 145.75342,241.41419 145.14008,241.08811 144.33265,241.0881 C 143.54074,241.08811 142.93128,241.41419 142.50428,242.06634 C 142.08503,242.71851 141.87541,243.66569 141.87541,244.90789 C 141.87541,246.15011 142.08503,247.09729 142.50428,247.74944 C 142.93128,248.4016 143.54074,248.72768 144.33265,248.72768 M 165.91213,244.86131 L 165.91213,246.04917 L 157.14292,246.04917 C 157.22831,247.02741 157.54275,247.76109 158.08622,248.25021 C 158.63744,248.73933 159.40218,248.98389 160.38042,248.98389 C 161.17232,248.98389 161.97975,248.85579 162.80273,248.59958 C 163.63344,248.33561 164.48358,247.93966 165.35313,247.41172 L 165.35313,250.62593 C 164.46805,250.99859 163.5791,251.27809 162.68627,251.46442 C 161.80119,251.65852 160.91612,251.75556 160.03105,251.75556 C 157.90376,251.75556 156.25008,251.15775 155.06998,249.96213 C 153.89765,248.75874 153.31148,247.074 153.31148,244.90789 C 153.31148,242.78062 153.88988,241.10752 155.04669,239.8886 C 156.20349,238.66969 157.79507,238.06024 159.82143,238.06022 C 161.6692,238.06024 163.14432,238.67746 164.24679,239.91189 C 165.357,241.14634 165.91211,242.79615 165.91213,244.86131 M 162.0574,243.47547 C 162.05739,242.68357 161.84777,242.04694 161.42853,241.56558 C 161.01704,241.07647 160.47358,240.83191 159.79814,240.8319 C 159.0761,240.83191 158.48605,241.06094 158.02799,241.51899 C 157.57768,241.9693 157.29431,242.62146 157.17785,243.47547 L 162.0574,243.47547 M 179.65405,240.54076 C 180.12763,239.73333 180.6905,239.11999 181.34268,238.70074 C 181.99482,238.27374 182.71297,238.06024 183.49713,238.06022 C 184.84801,238.06024 185.87672,238.52218 186.58324,239.44606 C 187.28973,240.36996 187.64298,241.7131 187.643,243.47547 L 187.643,251.41784 L 183.86979,251.41784 L 183.86979,244.61675 C 183.87754,244.51583 183.88142,244.41102 183.88144,244.30232 C 183.88919,244.19363 183.89307,244.03835 183.89309,243.83649 C 183.89307,242.9126 183.76885,242.24492 183.52042,241.83343 C 183.27973,241.41419 182.88378,241.20457 182.33256,241.20456 C 181.62604,241.20457 181.07869,241.53065 180.69052,242.1828 C 180.30232,242.83497 180.10046,243.77827 180.08494,245.0127 L 180.08494,251.41784 L 176.31174,251.41784 L 176.31174,244.61675 C 176.31173,243.17269 176.19915,242.24492 175.97401,241.83343 C 175.74885,241.41419 175.34902,241.20457 174.7745,241.20456 C 174.06023,241.20457 173.50512,241.53453 173.10917,242.19444 C 172.72097,242.84661 172.52688,243.78215 172.52688,245.00106 L 172.52688,251.41784 L 168.75368,251.41784 L 168.75368,238.37466 L 172.52688,238.37466 L 172.52688,240.28455 C 172.98494,239.547 173.51288,238.99189 174.1107,238.61922 C 174.7085,238.24657 175.36843,238.06024 176.09047,238.06022 C 176.89789,238.06024 177.61216,238.27762 178.23328,238.71238 C 178.86213,239.14717 179.33572,239.75662 179.65405,240.54076 M 189.58783,238.37466 L 193.34939,238.37466 L 196.50538,247.22539 L 199.18389,238.37466 L 202.9338,238.37466 L 197.99603,252.65228 C 197.49914,254.10411 196.92073,255.11728 196.26082,255.69181 C 195.60089,256.27409 194.73134,256.56523 193.65218,256.56524 L 191.47444,256.56524 L 191.47444,253.8285 L 192.65065,253.8285 C 193.28728,253.82849 193.74922,253.71592 194.03649,253.49077 C 194.33151,253.26562 194.56054,252.8619 194.72359,252.27962 L 194.8284,251.9186 L 189.58783,238.37466"
       id="text3266" />
  </g>
</svg>
